<svg xmlns="http://www.w3.org/2000/svg" viewBox="0 0 200 200" xmlns:bx="https://boxy-svg.com">
  <defs>
    <linearGradient bx:pinned="true" id="color-0">
      <stop style="stop-color: rgb(45, 247, 253);" offset="0"></stop>
      <stop style="stop-color: #6dd5fa;" offset="0.517"></stop>
      <stop style="stop-color: rgb(24, 225, 249);" offset="1"></stop>
    </linearGradient>
    <radialGradient id="color-0-0" href="#color-0" gradientUnits="userSpaceOnUse" cx="74.562" cy="70.138" r="72.836" gradientTransform="matrix(1, 0, 0, 1, 25.432686, 29.87448)"></radialGradient>
    <bx:export>
      <bx:file format="svg"></bx:file>
    </bx:export>
  </defs>
  <path style="stroke-linecap: round; fill: rgb(102, 255, 248); stroke-width: 10px; stroke: rgb(102, 255, 248);" d="M 0.255 183.553 L 105.492 185.597"></path>
  <path d="M 108.653000549 91.778999207 Q 108.653000549 91.384605208 109.012087423 91.157042497 Q 109.395563569 90.914023668 109.896913969 91.060825459 Q 110.454202569 91.224006668 110.807521792 91.778999207 Q 111.204471771 92.402526775 111.140827388 93.215346702 Q 111.069662437 94.124213882 110.448434918 94.888782755 Q 109.760431339 95.735535524 108.653000549 96.088041692 Q 107.438796863 96.474534729 106.139392433 96.132696175 Q 104.72764419 95.761302968 103.677346871 94.651694197 Q 102.545232836 93.45564843 102.189436821 91.778999207 Q 101.808510205 89.983924821 102.433433452 88.188130468 Q 103.098640982 86.276574237 104.703044937 84.937475399 Q 106.402426919 83.519104153 108.653000549 83.160914235 Q 111.02662252 82.783140565 113.321129909 83.69356198 Q 115.732098721 84.650193301 117.360394486 86.751782973 Q 119.065771395 88.952858832 119.425606764 91.778999207 Q 119.801395358 94.730435923 118.604307906 97.524389188 Q 117.357329029 100.434787002 114.757477404 102.352263273 Q 112.055421468 104.345118592 108.653000549 104.706126664 Q 105.124032014 105.080561855 101.830349947 103.596176692 Q 98.420444289 102.059412287 96.213866354 98.960736683 Q 93.933230446 95.758062199 93.571351849 91.778999207 Q 93.19789472 87.672623603 94.969952934 83.879087983 Q 96.796176414 79.969598009 100.394002452 77.473994882 Q 104.09709138 74.905376996 108.653000549 74.542829264 Q 113.336723136 74.170110463 117.630172395 76.230081462 Q 122.039309904 78.345558985 124.823875003 82.442740487 Q 127.680614734 86.646119026 128.043691735 91.778999207 Q 128.415834113 97.040038127 126.067788423 101.833431673 Q 123.663193489 106.742267087 119.06651989 109.81574379 Q 114.362932912 112.960706051 108.653000549 113.324211635 Q 102.814661448 113.695891846 97.521307461 111.059657209 Q 92.112734198 108.366040231 88.750385837 103.269779168 Q 85.317126326 98.066039139 84.953266878 91.778999207 Q 84.5819653 85.363368511 87.506472417 79.570045497 Q 90.489042363 73.661702511 96.084959966 70.010514365 Q 101.788813757 66.288900712 108.653000549 65.924744292 Q 115.645918375 65.553758479 121.93921488 68.766600945 Q 128.347353274 72.038072286 132.287355521 78.133698002 Q 136.297367595 84.337636779 136.661776707 91.778999207 Q 137.032495229 99.349202013 133.53126894 106.142474159 Q 129.970935692 113.050428884 123.375562376 117.279224307 Q 116.671560256 121.577669917 108.653000549 121.942296607 Q 100.505513586 122.312785985 93.212264975 118.523137727 Q 85.804476691 114.673973456 81.286905319 107.578821654 Q 76.69999787 100.374772847 76.335181906 91.778999207 Q 75.964891122 83.054228148 80.0429919 75.261003011 Q 84.180962594 67.353366837 91.77591748 62.547033847 Q 99.479999911 57.671641419 108.653000549 57.306659321 Q 117.955056077 56.936542291 126.248257366 61.303120428 Q 134.655753466 65.729877644 139.750836038 73.824655516 Q 144.9147326 82.028761147 145.279861678 91.778999207 Q 145.649825418 101.658339819 140.994749457 110.451516645 Q 136.279222045 119.358882866 127.684604861 124.742704824 Q 118.980484468 130.195121553 108.653000549 130.560381578 Q 98.196374112 130.930209086 88.90322249 125.986618244 Q 79.495977439 120.982334189 73.823424802 111.88786414 Q 68.082474356 102.683735905 67.717096935 91.778999207 Q 67.347391292 80.745086149 72.579511383 70.951960526 Q 77.872540707 61.044829152 87.466874994 55.08355333 Q 97.171005329 49.054057608 108.653000549 48.688574349 Q 120.264201033 48.318978359 130.557299852 53.83963991 Q 140.964324039 59.421404869 147.214316555 69.51561303 Q 153.532367486 79.719740652 153.89794665 91.778999207 Q 154.267443454 103.967487908 148.458229975 114.76055913 Q 142.587737616 125.667481789 131.993647347 132.206185342 Q 121.289526511 138.812800082 108.653000549 139.17846655 Q 95.887222866 139.547873208 84.594180004 133.450098761 Q 73.187353912 127.290886093 66.359944285 116.196906626 Q 59.464758239 104.992796048 59.099011963 91.778999207 Q 58.729687593 78.435931816 65.116030865 66.64291804 Q 71.563957695 54.736184141 83.157832509 47.620072813 Q 94.861929841 40.43630889 108.653000549 40.070489378 Q 122.573358333 39.701240419 134.866342338 46.376159393 Q 147.272987917 53.112795019 154.677797072 65.206570545 Q 162.150144665 77.410652047 162.516031621 91.778999207 Q 162.885211217 106.276648029 155.921710492 119.069601616 Q 148.896370782 131.976162325 136.302689833 139.669665859 Q 123.598626412 147.430602254 108.653000549 147.796551521 Q 93.578060086 148.165667104 80.285137518 140.913579279 Q 66.8786586 133.599539641 58.896463768 120.505949111 Q 50.846934 107.301905744 50.480926992 91.778999207 Q 50.111870666 76.126766539 57.652550348 62.333875554 Q 65.255286224 48.42747566 78.848790023 40.156592295 Q 92.5528116 31.818465071 108.653000549 31.452404406 Q 124.882525947 31.083403093 139.175384823 38.912678876 Q 153.581708182 46.804107706 162.14127759 60.897528059 Q 170.768005937 75.101526308 171.134116592 91.778999207 Q 171.503066697 108.585817825 163.385191009 123.378644102 Q 155.205072167 138.284893176 140.611732318 147.133146376 Q 125.907758766 156.048479151 108.653000549 156.414636493 Q 91.268888254 156.783538813 75.976095033 148.377059796 Q 60.569918202 139.908253582 51.43298325 124.814991597 Q 42.229043062 109.611043961 41.86284202 91.778999207 Q 41.493984393 73.817592808 50.189069831 58.024833068 Q 58.946561034 42.118726626 74.539747537 32.693111778 Q 90.243668162 23.200561466 108.653000549 22.834319435 Q 127.191701448 22.465503699 143.484427309 31.449198359 Q 159.890465055 40.495372396 169.604758107 56.588485573 Q 179.385921008 72.792378201 179.752201564 91.778999207 Q 180.120977954 110.894994976 170.848671526 127.687686588 Q 161.51381661 144.593657186 144.920774804 154.596626893 Q 128.216911063 164.666404633 108.653000549 165.032721464 Q 88.959709562 165.401460829 71.667052547 155.840540313 Q 54.261147677 146.217006299 43.969502733 129.124034083 Q 33.611108097 111.920200033 33.244757049 91.778999207 Q 33.196839067 89.144570535 33.332924498 86.512106413" bx:shape="spiral 108.653 91.779 0 75.504 0 3154 1@2c5ae379" style="stroke: rgb(102, 255, 248); fill: url(#color-0-0); stroke-linecap: round; stroke-width: 6px;" transform="matrix(1.09238374, 0, 0, 1.08729219, -21.1105922, -2.19869331)"></path>
  <path d="M 58.4 152.8 m -88.483 0 a 88.483 88.071 0 1 0 176.966 0 a 88.483 88.071 0 1 0 -176.966 0 Z M 58.4 152.8 m -81.929 0 a 81.929 81.547 0 0 1 163.858 0 a 81.929 81.547 0 0 1 -163.858 0 Z" bx:shape="ring 58.4 152.8 81.929 81.547 88.483 88.071 1@d9a5d727" style="stroke-linecap: round; stroke: rgb(0, 0, 0); fill: rgb(28, 28, 28); transform-box: fill-box; transform-origin: 50% 50%; stroke-width: 4px;" transform="matrix(-1, -0.000029, 0.000029, -1, 41.599999, -52.799999)"></path>
  <ellipse style="stroke: rgb(0, 0, 0); stroke-width: 10px;" cx="100" cy="100" rx="22.88" ry="23.329"></ellipse>
  <path style="fill: rgb(28, 28, 28); stroke: rgb(0, 0, 0); stroke-linecap: round; stroke-width: 6px;" transform="matrix(-0.352116, 0.599363, -0.60217, -0.350475, 246.246372, 111.12256)" d="M 86.896184355 72.15 L 97.103815645 72.15 L 99.241900618 138.715754064 A 51.397 51.397 0 0 1 103.62863857 139.535777505 L 129.668667341 78.237425789 L 139.187000046 81.924847524 L 117.134380999 144.767929996 A 51.397 51.397 0 0 1 120.928665683 147.11725161 L 167.353788073 99.364984307 L 174.89731862 106.241821038 L 131.632323951 156.874925405 A 51.397 51.397 0 0 1 134.321716196 160.436256289 L 194.861962176 132.679281703 L 199.411894963 141.816778525 L 140.777701944 173.401623474 A 51.397 51.397 0 0 1 141.998984424 177.693986158 L 208.478058309 173.681037514 L 209.419899702 183.845124848 L 143.335381003 192.116002052 A 51.397 51.397 0 0 1 142.923612751 196.559689171 L 206.363147241 216.832737419 L 203.569696341 226.650698949 L 138.959932398 210.49058061 A 51.397 51.397 0 0 1 136.970724999 214.485447596 L 188.802859429 256.306505233 L 182.651387259 264.452370852 L 128.242284708 226.043770498 A 51.397 51.397 0 0 1 124.944291645 229.050288428 L 158.168809049 286.771189883 L 149.490106011 292.1448153 L 112.629915644 236.675027239 A 51.397 51.397 0 0 1 108.468549153 238.287149206 L 118.598294352 304.112366894 L 108.564467383 305.988014222 L 94.231362157 240.948540699 A 51.397 51.397 0 0 1 89.768637843 240.948540699 L 75.435532617 305.988014222 L 65.401705648 304.112366894 L 75.531450847 238.287149206 A 51.397 51.397 0 0 1 71.370084356 236.675027239 L 34.509893989 292.1448153 L 25.831190951 286.771189883 L 59.055708355 229.050288428 A 51.397 51.397 0 0 1 55.757715292 226.043770498 L 1.348612741 264.452370852 L -4.802859429 256.306505233 L 47.029275001 214.485447596 A 51.397 51.397 0 0 1 45.040067602 210.49058061 L -19.569696341 226.650698949 L -22.363147241 216.832737419 L 41.076387249 196.559689171 A 51.397 51.397 0 0 1 40.664618997 192.116002052 L -25.419899702 183.845124848 L -24.478058309 173.681037514 L 42.001015576 177.693986158 A 51.397 51.397 0 0 1 43.222298056 173.401623474 L -15.411894963 141.816778525 L -10.861962176 132.679281703 L 49.678283804 160.436256289 A 51.397 51.397 0 0 1 52.367676049 156.874925405 L 9.10268138 106.241821038 L 16.646211927 99.364984307 L 63.071334317 147.11725161 A 51.397 51.397 0 0 1 66.865619001 144.767929996 L 44.812999954 81.924847524 L 54.331332659 78.237425789 L 80.37136143 139.535777505 A 51.397 51.397 0 0 1 84.758099382 138.715754064 Z M 92 156.794 A 32.806 32.806 0 0 0 92 222.406 A 32.806 32.806 0 0 0 92 156.794" bx:shape="cog 92 189.6 32.806 51.397 117.45 0.53 17 1@ef0d635a"></path>
</svg>